<svg width="64" height="64" viewBox="0 0 64 64" fill="none" xmlns="http://www.w3.org/2000/svg">
<rect width="64" height="64" rx="16" fill="url(#paint0_linear_5_9)"/>
<path d="M30.0515 13.2684C38.9586 13.2684 46.1875 15.6775 46.1875 19.6255V27.054C47.8064 27.2665 49.3596 27.8289 50.7393 28.7021C52.119 29.5753 53.292 30.7383 54.177 32.1105C55.062 33.4826 55.6376 35.031 55.8639 36.648C56.0903 38.265 55.9619 39.9119 55.4877 41.4744C55.0135 43.0368 54.2049 44.4772 53.118 45.6957C52.0311 46.9141 50.692 47.8814 49.1937 48.5302C47.6953 49.179 46.0737 49.4939 44.4415 49.453C42.8092 49.4121 41.2054 49.0163 39.7415 48.2932L40.3282 48.1222C37.5017 48.9772 33.8805 49.4516 30.0515 49.4516C29.6944 49.4516 29.3423 49.4483 28.9903 49.4399L27.9492 49.4064L26.9265 49.3494C26.5912 49.3276 26.2559 49.3008 25.9274 49.2706L24.9533 49.17C24.4816 49.1155 24.011 49.0518 23.5417 48.9789L22.6364 48.8246L21.7647 48.6503C17.2064 47.6662 14.1082 45.8171 13.9238 43.3308L13.9154 43.0961V19.6255L13.9238 19.3908C14.2055 15.5819 21.3221 13.2684 30.0515 13.2684ZM16.8493 39.1179V43.0961C16.8493 43.7718 18.1267 44.5597 20.229 45.2085L20.8829 45.3996C21.1092 45.46 21.3422 45.5203 21.5836 45.579L22.3296 45.7483L23.1159 45.9042L23.9407 46.0467L24.3666 46.1138L25.2434 46.2311L25.696 46.2814L26.6181 46.372L27.5703 46.4424C28.375 46.4927 29.2032 46.5178 30.0515 46.5178C32.0515 46.5178 33.9828 46.3803 35.7414 46.1222L36.5964 45.983L36.3114 45.6729L36.2293 45.579L36.1555 45.4952L36.075 45.3979L35.9527 45.2487C35.7736 45.0262 35.603 44.7969 35.4413 44.5614L35.3039 44.3552C34.8626 43.68 34.495 42.9595 34.2074 42.2059L34.1287 41.993L34.0884 41.8757L34.0482 41.7617C34.0149 41.661 33.983 41.5598 33.9526 41.4582C32.6902 41.5722 31.3826 41.6292 30.0515 41.6292C24.5946 41.6292 19.7697 40.7239 16.8493 39.1179ZM49.5002 39.6711C49.4164 40.2612 49.2823 40.8798 49.1096 41.5236C48.7564 42.7823 48.3098 44.0129 47.7734 45.2051C47.6427 45.5036 47.5069 45.7986 47.3711 46.087C48.7827 45.6105 50.0407 44.7641 51.0138 43.6359C51.9869 42.5077 52.6394 41.1391 52.9034 39.6728L49.5002 39.6711ZM39.941 39.6711H36.5361L36.6132 40.05C36.9303 41.439 37.5985 42.7235 38.5539 43.7805C39.5094 44.8375 40.72 45.6316 42.0701 46.087C41.9326 45.7946 41.7984 45.5006 41.6677 45.2051C41.1314 44.0129 40.6848 42.7823 40.3316 41.5236C40.1636 40.9147 40.0332 40.296 39.941 39.6711ZM46.5278 39.6711H42.9134C42.9771 40.0148 43.0609 40.3769 43.1648 40.7558C43.4414 41.7784 43.8488 42.8815 44.3518 44.0199L44.5345 44.4273L44.7189 44.8246L44.9067 44.4273L45.0911 44.0199C45.594 42.8815 45.9997 41.7784 46.278 40.7558C46.3786 40.3769 46.4624 40.0148 46.5278 39.6694V39.6711ZM16.8493 31.2921V35.2838L16.861 35.386C16.975 35.9326 17.8769 36.5395 19.3405 37.0826L19.9189 37.2838L20.229 37.3844L20.8829 37.5738C21.1092 37.6359 21.3422 37.6962 21.5836 37.7549L22.3296 37.9225C22.4571 37.951 22.5861 37.9779 22.7169 38.003L23.5233 38.1539C23.7982 38.2008 24.0799 38.2444 24.3666 38.288L25.2434 38.4054L26.1537 38.506L27.0925 38.5848C29.221 38.738 31.3581 38.7273 33.4849 38.5529C33.4289 36.8435 33.7643 35.1438 34.4656 33.5838C33.049 33.7297 31.5653 33.8035 30.0515 33.8035C24.5946 33.8035 19.7697 32.8982 16.8493 31.2921ZM42.0718 30.3198L41.718 30.4505C40.4984 30.9235 39.4076 31.6776 38.5344 32.6517C37.5005 33.7998 36.8088 35.2146 36.5377 36.7356L39.941 36.7373C40.0248 36.1472 40.1589 35.5302 40.3316 34.8865C40.6518 33.7062 41.1095 32.469 41.6677 31.2049C41.7985 30.9048 41.936 30.6098 42.0718 30.3214V30.3198ZM44.7206 31.5838L44.625 31.785C44.5328 31.9862 44.4406 32.1873 44.3518 32.3885C43.8488 33.5285 43.4414 34.6316 43.1632 35.6543C43.0651 36.0123 42.9817 36.3741 42.9134 36.739H46.5278C46.4589 36.3741 46.375 36.0122 46.2764 35.6543C45.962 34.5384 45.5653 33.4474 45.0894 32.3902L44.9067 31.9828L44.7206 31.5838ZM47.3711 30.3231L47.4767 30.5494C47.5773 30.7657 47.6779 30.9853 47.7734 31.2049C48.3317 32.469 48.7894 33.7062 49.1096 34.8865C49.2839 35.5285 49.4147 36.1472 49.5002 36.7373H52.9034C52.6396 35.2709 51.9871 33.9022 51.014 32.774C50.0409 31.6458 48.7828 30.7994 47.3711 30.3231ZM43.257 23.4663C41.9561 24.1839 40.2796 24.7589 38.3366 25.178L37.4648 25.3524L36.5612 25.5066C36.1019 25.5787 35.6308 25.6407 35.1496 25.6977L34.1756 25.7983C33.847 25.8285 33.5134 25.8553 33.1764 25.8771L32.1538 25.9341L31.1127 25.9676C30.4053 25.9831 29.6977 25.9831 28.9903 25.9676L27.9492 25.9341L26.9265 25.8771C26.5912 25.8553 26.2559 25.8285 25.9274 25.7983L24.9533 25.6977C24.4816 25.6433 24.011 25.5795 23.5417 25.5066L22.6364 25.3524L21.7647 25.178C19.825 24.7589 18.1485 24.1839 16.8476 23.468L16.8493 27.4614L16.8627 27.567C16.9515 27.9744 17.4763 28.4153 18.3447 28.8378L18.8141 29.0507C19.146 29.1915 19.5165 29.329 19.9206 29.4614L20.5492 29.6559C20.6582 29.6894 20.7705 29.7196 20.8829 29.7498L21.5836 29.9308L21.9524 30.0163L22.7169 30.1789L23.1159 30.2561L23.9407 30.3985C24.5024 30.4874 25.0891 30.5662 25.6943 30.6333L26.6181 30.7238C27.7128 30.8177 28.8645 30.8696 30.0515 30.8696C32.4153 30.8696 34.6919 30.6768 36.7121 30.3164C36.8504 30.167 36.9959 30.0243 37.148 29.8889C37.3559 29.6995 37.5704 29.5201 37.7901 29.3457L37.9208 29.2451C38.0781 29.1258 38.2386 29.0107 38.402 28.8998L38.526 28.816C39.8217 27.9602 41.2808 27.3825 42.8111 27.1194L43.2537 27.054L43.257 23.4663Z" fill="url(#paint1_linear_5_9)"/>
<defs>
<linearGradient id="paint0_linear_5_9" x1="53" y1="6" x2="9.5" y2="55" gradientUnits="userSpaceOnUse">
<stop offset="0.22115" stop-color="#FFC04A"/>
<stop offset="1" stop-color="#F5A74B"/>
</linearGradient>
<linearGradient id="paint1_linear_5_9" x1="35.5696" y1="22.8028" x2="35.293" y2="49.4602" gradientUnits="userSpaceOnUse">
<stop offset="0.182688" stop-color="white"/>
<stop offset="1" stop-color="white" stop-opacity="0.6"/>
</linearGradient>
</defs>
</svg>
