<svg width="28" height="28" viewBox="0 0 28 28" fill="none" xmlns="http://www.w3.org/2000/svg">
  <g clip-path="url(#clip0_52_28)">
    <path
      d="M23.9336 17.7305V18.7129C23.9336 19.7932 23.036 20.6768 21.9395 20.6768H15.959V23.1318H19.4473C19.9955 23.1318 20.4443 23.5741 20.4443 24.1143C20.4443 24.6544 19.9955 25.0967 19.4473 25.0967H7.48535C6.93727 25.0965 6.48929 24.6543 6.48926 24.1143C6.48926 23.5742 6.93726 23.132 7.48535 23.1318H10.9746V20.6768H4.99316C3.89687 20.6765 3 19.793 3 18.7129V17.7305H23.9336ZM21.9248 3C23.0341 3.00012 23.9336 3.89946 23.9336 5.00879V16.2578H3V5.00879C3 3.89938 3.89938 3 5.00879 3H21.9248Z"
      fill="url(#paint0_linear_52_28)"/>
    <path fill-rule="evenodd" clip-rule="evenodd"
          d="M17.1825 6.36816C17.4584 6.09742 17.902 6.10114 18.1727 6.37694L18.327 6.53417C18.5973 6.81015 18.593 7.25379 18.3172 7.52441L14.3866 11.3818C14.1227 11.6408 13.7024 11.6496 13.4276 11.4023L11.7792 9.91796C11.6634 9.81368 11.4866 9.81534 11.3729 9.92187L8.93151 12.209C8.64952 12.473 8.20657 12.4584 7.94225 12.1767L7.79088 12.0156C7.52682 11.7334 7.54201 11.2906 7.82409 11.0264L11.0829 7.97362C11.3481 7.72521 11.76 7.72082 12.0301 7.96386L13.659 9.43066C13.7768 9.53642 13.9571 9.53274 14.0702 9.42187L17.1825 6.36816ZM8.08776 12.04C8.1092 12.0629 8.13272 12.0827 8.15709 12.1006C8.13261 12.0826 8.10928 12.062 8.08776 12.0391L7.93737 11.8789L8.08776 12.04ZM7.84948 11.3223C7.83536 11.3521 7.82512 11.3834 7.81725 11.415C7.83198 11.3561 7.85714 11.2993 7.89342 11.248L7.84948 11.3223ZM18.1776 7.38085L14.246 11.2392C14.201 11.2833 14.1493 11.3161 14.0946 11.3398C14.1206 11.3286 14.1466 11.3167 14.1708 11.3008C14.1975 11.2832 14.2233 11.2624 14.2469 11.2392L18.1776 7.38183C18.2015 7.35833 18.2219 7.33236 18.2401 7.30566C18.222 7.33217 18.2014 7.35749 18.1776 7.38085Z"
          fill="white"/>
    <rect x="14.4017" y="14.0126" width="13.5983" height="13.5983" rx="1.4" fill="white"/>
    <path fill-rule="evenodd" clip-rule="evenodd"
          d="M15.9707 15.1264C16.2466 15.1266 16.4707 15.3504 16.4707 15.6264V25.1264C16.4707 25.4024 16.2466 25.6261 15.9707 25.6264C15.6945 25.6264 15.4707 25.4025 15.4707 25.1264V15.6264C15.4707 15.3502 15.6945 15.1264 15.9707 15.1264ZM23.7881 23.0268C24.3403 23.0268 24.7881 23.4745 24.7881 24.0268V24.39C24.7881 24.9423 24.3403 25.39 23.7881 25.39H17.334V23.0268H23.7881ZM25.0615 19.226C25.6135 19.2261 26.0613 19.674 26.0615 20.226V20.5902C26.0614 21.1424 25.6136 21.5901 25.0615 21.5902H17.334V19.226H25.0615ZM22.334 15.308C22.8862 15.308 23.3339 15.7558 23.334 16.308V16.6723C23.3337 17.2244 22.8861 17.6722 22.334 17.6723H17.334V15.308H22.334Z"
          fill="#3A8CF1"/>
  </g>
  <defs>
    <linearGradient id="paint0_linear_52_28" x1="13.4668" y1="-2.65675" x2="13.4668" y2="14.0483"
                    gradientUnits="userSpaceOnUse">
      <stop stop-color="#BAE7FF"/>
      <stop offset="1" stop-color="#40A9FF"/>
    </linearGradient>
    <clipPath id="clip0_52_28">
      <rect width="28" height="28" fill="white"/>
    </clipPath>
  </defs>
</svg>
