<svg xmlns="http://www.w3.org/2000/svg" width="440" height="270" viewBox="0 0 440 270" role="img" aria-label="全量盘点核对" style="--panel:#223b5f;--soft:#193151;--stroke:#55759c;--line:#6a91c2;--blue:#69a2ff;--cyan:#49cadd;--green:#67d4ac;--amber:#efbc68;--red:#f18b90;--glow:#3479d8;--shadow:#000000"><title>全量盘点核对</title><defs><linearGradient id="face" x1="0" y1="0" x2="1" y2="1"><stop stop-color="var(--soft)"/><stop offset="1" stop-color="var(--panel)"/></linearGradient><filter id="lift" x="-30%" y="-30%" width="160%" height="170%"><feDropShadow dx="0" dy="8" stdDeviation="8" flood-color="var(--shadow)" flood-opacity=".18"/></filter></defs><ellipse cx="226" cy="133" rx="190" ry="112" fill="var(--glow)" opacity=".11"/><path d="M8 238c93-31 155 10 234-6s122-13 190 0" fill="none" stroke="var(--line)" stroke-opacity=".2" stroke-width="1.5"/><g transform="translate(26 80) scale(0.73)" filter="url(#lift)"><path d="M4 0h67l21 21v98a4 4 0 0 1-4 4H4a4 4 0 0 1-4-4V4a4 4 0 0 1 4-4Z" fill="var(--panel)" stroke="var(--stroke)" stroke-width="2"/><path d="M71 0v21h21" fill="var(--soft)" stroke="var(--stroke)" stroke-width="2"/><rect x="13" y="34" width="64" height="14" rx="4" fill="var(--blue)" opacity=".25"/><path d="M15 62h62M15 78h49M15 94h57" fill="none" stroke="var(--line)" stroke-width="5" stroke-linecap="round" stroke-linejoin="round"/><circle cx="22" cy="41" r="5" fill="var(--blue)"/></g><g transform="translate(47 58) scale(0.73)" filter="url(#lift)"><path d="M4 0h67l21 21v98a4 4 0 0 1-4 4H4a4 4 0 0 1-4-4V4a4 4 0 0 1 4-4Z" fill="var(--panel)" stroke="var(--stroke)" stroke-width="2"/><path d="M71 0v21h21" fill="var(--soft)" stroke="var(--stroke)" stroke-width="2"/><rect x="13" y="34" width="64" height="14" rx="4" fill="var(--cyan)" opacity=".25"/><path d="M15 62h62M15 78h49M15 94h57" fill="none" stroke="var(--line)" stroke-width="5" stroke-linecap="round" stroke-linejoin="round"/><circle cx="22" cy="41" r="5" fill="var(--cyan)"/></g><g transform="translate(325 80) scale(0.73)" filter="url(#lift)"><path d="M4 0h67l21 21v98a4 4 0 0 1-4 4H4a4 4 0 0 1-4-4V4a4 4 0 0 1 4-4Z" fill="var(--panel)" stroke="var(--stroke)" stroke-width="2"/><path d="M71 0v21h21" fill="var(--soft)" stroke="var(--stroke)" stroke-width="2"/><rect x="13" y="34" width="64" height="14" rx="4" fill="var(--blue)" opacity=".25"/><path d="M15 62h62M15 78h49M15 94h57" fill="none" stroke="var(--line)" stroke-width="5" stroke-linecap="round" stroke-linejoin="round"/><circle cx="22" cy="41" r="5" fill="var(--blue)"/></g><g transform="translate(304 58) scale(0.73)" filter="url(#lift)"><path d="M4 0h67l21 21v98a4 4 0 0 1-4 4H4a4 4 0 0 1-4-4V4a4 4 0 0 1 4-4Z" fill="var(--panel)" stroke="var(--stroke)" stroke-width="2"/><path d="M71 0v21h21" fill="var(--soft)" stroke="var(--stroke)" stroke-width="2"/><rect x="13" y="34" width="64" height="14" rx="4" fill="var(--cyan)" opacity=".25"/><path d="M15 62h62M15 78h49M15 94h57" fill="none" stroke="var(--line)" stroke-width="5" stroke-linecap="round" stroke-linejoin="round"/><circle cx="22" cy="41" r="5" fill="var(--cyan)"/></g><path d="M125 129h47m95 0h47" fill="none" stroke="var(--line)" stroke-width="3" stroke-linecap="round" stroke-linejoin="round"/><circle cx="221" cy="128" r="50" fill="var(--soft)" stroke="var(--stroke)" stroke-width="1.6"/><g transform="translate(190 96) scale(0.75)"><circle cx="33" cy="33" r="28" fill="var(--panel)" stroke="var(--stroke)" stroke-width="1.6"/><circle cx="33" cy="33" r="25" fill="none" stroke="var(--blue)" stroke-width="6"/><path d="M53 54 78 80" fill="none" stroke="var(--blue)" stroke-width="9" stroke-linecap="round" stroke-linejoin="round"/><circle cx="33" cy="33" r="11" fill="var(--soft)" stroke="var(--stroke)" stroke-width="1.6"/></g><circle cx="221" cy="218" r="15" fill="var(--green)" stroke="var(--stroke)" stroke-width="1.6"/><path d="M214.25 218l4.5 4.5 10.35 -11.25" fill="none" stroke="var(--panel)" stroke-width="3" stroke-linecap="round" stroke-linejoin="round"/></svg>
