<svg xmlns="http://www.w3.org/2000/svg" width="440" height="270" viewBox="0 0 440 270" role="img" aria-label="NiFi 流程编排" style="--panel:#223b5f;--soft:#193151;--stroke:#55759c;--line:#6a91c2;--blue:#69a2ff;--cyan:#49cadd;--green:#67d4ac;--amber:#efbc68;--red:#f18b90;--glow:#3479d8;--shadow:#000000"><title>NiFi 流程编排</title><defs><linearGradient id="face" x1="0" y1="0" x2="1" y2="1"><stop stop-color="var(--soft)"/><stop offset="1" stop-color="var(--panel)"/></linearGradient><filter id="lift" x="-30%" y="-30%" width="160%" height="170%"><feDropShadow dx="0" dy="8" stdDeviation="8" flood-color="var(--shadow)" flood-opacity=".18"/></filter></defs><ellipse cx="226" cy="133" rx="190" ry="112" fill="var(--glow)" opacity=".11"/><path d="M8 238c93-31 155 10 234-6s122-13 190 0" fill="none" stroke="var(--line)" stroke-opacity=".2" stroke-width="1.5"/><path d="M85 138h54m81 0h50m80 0h38" fill="none" stroke="var(--line)" stroke-width="4" stroke-linecap="round" stroke-linejoin="round"/><circle cx="52" cy="138" r="38" fill="var(--panel)" stroke="var(--stroke)" stroke-width="1.6"/><g transform="translate(29 110) scale(0.49)" filter="url(#lift)"><path d="M0 16v75c0 21 94 21 94 0V16" fill="url(#face)" stroke="var(--blue)" stroke-width="2"/><ellipse cx="47" cy="16" rx="47" ry="16" fill="var(--soft)" stroke="var(--blue)" stroke-width="2"/><path d="M0 40c0 21 94 21 94 0M0 65c0 21 94 21 94 0" fill="none" stroke="var(--line)" stroke-width="2" stroke-linecap="round" stroke-linejoin="round"/><circle cx="78" cy="80" r="4" fill="var(--cyan)"/></g><circle cx="179" cy="138" r="44" fill="var(--panel)" stroke="var(--stroke)" stroke-width="1.6"/><g transform="translate(145 109) scale(0.63)" filter="url(#lift)"><rect x="0" y="0" width="108" height="96" rx="18" fill="var(--panel)" stroke="var(--stroke)" stroke-width="1.6"/><circle cx="25" cy="29" r="11" fill="var(--soft)" stroke="var(--stroke)" stroke-width="1.6"/><circle cx="82" cy="29" r="11" fill="var(--soft)" stroke="var(--stroke)" stroke-width="1.6"/><circle cx="54" cy="69" r="11" fill="var(--soft)" stroke="var(--stroke)" stroke-width="1.6"/><path d="M34 36 47 59M74 37 61 59" fill="none" stroke="var(--line)" stroke-width="3" stroke-linecap="round" stroke-linejoin="round"/><circle cx="25" cy="29" r="5" fill="var(--blue)"/><circle cx="82" cy="29" r="5" fill="var(--cyan)"/><circle cx="54" cy="69" r="5" fill="var(--green)"/></g><circle cx="310" cy="138" r="44" fill="var(--panel)" stroke="var(--stroke)" stroke-width="1.6"/><g transform="translate(284 102) scale(0.57)" filter="url(#lift)"><path d="M4 0h67l21 21v98a4 4 0 0 1-4 4H4a4 4 0 0 1-4-4V4a4 4 0 0 1 4-4Z" fill="var(--panel)" stroke="var(--stroke)" stroke-width="2"/><path d="M71 0v21h21" fill="var(--soft)" stroke="var(--stroke)" stroke-width="2"/><rect x="13" y="34" width="64" height="14" rx="4" fill="var(--cyan)" opacity=".25"/><path d="M15 62h62M15 78h49M15 94h57" fill="none" stroke="var(--line)" stroke-width="5" stroke-linecap="round" stroke-linejoin="round"/><circle cx="22" cy="41" r="5" fill="var(--cyan)"/></g><circle cx="410" cy="138" r="25" fill="var(--panel)" stroke="var(--stroke)" stroke-width="1.6"/><circle cx="410" cy="138" r="19" fill="var(--green)" stroke="var(--stroke)" stroke-width="1.6"/><path d="M401.45 138l5.7 5.7 13.11 -14.25" fill="none" stroke="var(--panel)" stroke-width="3" stroke-linecap="round" stroke-linejoin="round"/><path d="M134 132l8 6-8 6" fill="none" stroke="var(--blue)" stroke-width="3" stroke-linecap="round" stroke-linejoin="round"/><path d="M265 132l8 6-8 6" fill="none" stroke="var(--blue)" stroke-width="3" stroke-linecap="round" stroke-linejoin="round"/><path d="M383 132l8 6-8 6" fill="none" stroke="var(--blue)" stroke-width="3" stroke-linecap="round" stroke-linejoin="round"/><rect x="141" y="204" width="174" height="12" rx="6" fill="var(--soft)" stroke="var(--stroke)" stroke-width="1.6"/><rect x="149" y="207" width="122" height="7" rx="3.5" fill="var(--blue)"/></svg>

