<svg xmlns="http://www.w3.org/2000/svg" xmlns:xlink="http://www.w3.org/1999/xlink" width="1840" height="48" viewBox="0 0 1840 48"><defs><style>.a{fill:url(#a);}.b{fill:url(#b);}.c{fill:url(#c);}.d{fill:url(#d);}.e{isolation:isolate;clip-path:url(#e);}.f{clip-path:url(#f);}.g{clip-path:url(#g);}</style><linearGradient id="a" x1="0.02" y1="0.583" x2="0.916" y2="0.673" gradientUnits="objectBoundingBox"><stop offset="0" stop-color="#f6f9ff"/><stop offset="1" stop-color="#e8f0fe"/></linearGradient><linearGradient id="b" y1="0.667" x2="1" y2="0.5" gradientUnits="objectBoundingBox"><stop offset="0" stop-color="#fff"/><stop offset="1" stop-color="#eaf1fe"/></linearGradient><linearGradient id="c" x1="1" y1="0.5" x2="0" xlink:href="#b"/><linearGradient id="d" x1="1" y1="0.5" x2="0" y2="0.5" gradientUnits="objectBoundingBox"><stop offset="0" stop-color="#e8f5ff"/><stop offset="1" stop-color="#eaf1fe"/></linearGradient><clipPath id="e"><rect class="a" width="1840" height="48"/></clipPath><clipPath id="f"><rect class="b" width="1840" height="48" rx="8"/></clipPath><clipPath id="g"><path class="c" d="M8,0H1832a8,8,0,0,1,8,8V40a8,8,0,0,1-8,8H8a8,8,0,0,1-8-8V8A8,8,0,0,1,8,0Z"/></clipPath></defs><path class="d" d="M8,0H1832a8,8,0,0,1,8,8V40a8,8,0,0,1-8,8H8a8,8,0,0,1-8-8V8A8,8,0,0,1,8,0Z"/></svg>